<?xml version="1.0" encoding="utf-8"?>
<!-- Generator: Adobe Illustrator 22.1.0, SVG Export Plug-In . SVG Version: 6.00 Build 0)  -->
<svg version="1.1" id="Layer_1" xmlns="http://www.w3.org/2000/svg" xmlns:xlink="http://www.w3.org/1999/xlink" x="0px" y="0px"
	 viewBox="0 0 699.5 204" style="enable-background:new 0 0 699.5 204;" xml:space="preserve">
<style type="text/css">
	.st0{fill:#CCCCCC;}
	.st1{fill:#4D4D4D;}
	.st2{fill:#999999;}
	.st3{fill:#39B34A;}
	.st4{fill:#FFFFFF;}
</style>
<g>
	<g>
		<path class="st0" d="M533,8c13.8,0,25,11.3,25,25v138c0,13.8-11.3,25-25,25H33c-13.8,0-25-11.3-25-25V33C8,19.3,19.3,8,33,8H533
			 M533,0H33C14.8,0,0,14.8,0,33v138c0,18.2,14.8,33,33,33h500c18.2,0,33-14.8,33-33V33C566,14.8,551.2,0,533,0L533,0z"/>
	</g>
	<g>
		<g>
			<path class="st1" d="M328.1,117c9.6,0,15.3,5.3,15.3,14.1c0,9.4-6.4,14.6-18.1,14.6h-6.8v14.9c0,0.4-0.3,0.7-0.7,0.7h-5.8
				c-0.4,0-0.7-0.3-0.7-0.7v-42.9c0-0.4,0.3-0.7,0.7-0.7H328.1z M318.4,139.4h6.8c7.1,0,10.8-3,10.8-8.3c0-4.8-3-7.7-8-7.7h-9.7
				V139.4z"/>
			<path class="st1" d="M388.2,139.1c0,14.1-7.4,22.9-19.3,22.9c-12,0-19.3-8.8-19.3-22.9c0-14,7.3-22.8,19.3-22.8
				C380.9,116.4,388.2,125.1,388.2,139.1z M357,139.1c0,10.1,4.4,16.3,12,16.3c7.5,0,11.9-6.1,11.9-16.3c0-10.2-4.4-16.2-11.9-16.2
				C361.4,122.9,357,128.9,357,139.1z"/>
			<path class="st1" d="M423.5,154.9c0.4,0,0.7,0.3,0.7,0.7v5c0,0.4-0.3,0.7-0.7,0.7h-26.6c-0.4,0-0.7-0.3-0.7-0.7v-42.9
				c0-0.4,0.3-0.7,0.7-0.7h5.8c0.4,0,0.7,0.3,0.7,0.7v37.2H423.5z"/>
			<path class="st1" d="M439.5,160.6c0,0.4-0.3,0.7-0.7,0.7H433c-0.4,0-0.7-0.3-0.7-0.7v-42.9c0-0.4,0.3-0.7,0.7-0.7h5.8
				c0.4,0,0.7,0.3,0.7,0.7V160.6z"/>
			<path class="st1" d="M476.4,160.4c-3.4,1.2-5.8,1.6-9.4,1.6c-12.1,0-19.5-8.8-19.5-22.9c0-14,7.4-22.8,19.5-22.8
				c3.6,0,6,0.3,9.3,1.5l2.8,1c0.4,0.1,0.6,0.4,0.4,0.8l-1.6,4.9c-0.1,0.4-0.4,0.6-0.8,0.4l-2.9-1c-2.2-0.8-4.1-1-7.2-1.1
				c-7.7,0-12.2,6-12.2,16.2c0,10.3,4.5,16.3,12.2,16.3c2.7,0,4.6-0.3,7.2-1.1l2.8-1c0.4-0.1,0.7,0.1,0.9,0.4l1.7,4.8
				c0.2,0.4,0,0.8-0.4,0.9L476.4,160.4z"/>
			<path class="st1" d="M514.3,133.7c-4.3,7.8-6.1,11.1-6.1,18.4v8.6c0,0.4-0.3,0.7-0.7,0.7h-5.8c-0.4,0-0.7-0.3-0.7-0.7V152
				c0-7.3-1.8-10.6-6.1-18.4l-9.3-15.8c-0.3-0.4-0.1-0.8,0.4-0.8h6.4c0.4,0,0.6,0.1,0.8,0.4l6.8,11.3c1.8,3,3,5.9,4.1,8.6
				c0.3,0.6,0.8,0.6,1,0c1-2.7,2.4-5.6,4.1-8.6l6.9-11.3c0.2-0.3,0.4-0.4,0.8-0.4h6.4c0.5,0,0.8,0.4,0.4,0.8L514.3,133.7z"/>
		</g>
		<g>
			<path class="st2" d="M369.9,86.3c-1.6,6.2-3,12.1-4.1,18.2c-0.1,0.7-0.5,1.1-1.3,1.1H348c-0.7,0-1.2-0.4-1.3-1.1
				c-1-5.2-2-10-3.2-14.9L340.7,78c-0.5-2.3-1.3-6.1-1.8-9.3c-0.2-1.3-1.3-1.3-1.4,0c-0.5,3.1-1.3,6.8-1.8,9.3l-2.8,11.7
				c-1.2,4.9-2.2,9.7-3.2,14.9c-0.1,0.7-0.5,1.1-1.3,1.1H312c-0.7,0-1.2-0.4-1.3-1.1c-1.2-6.1-2.5-12-4.1-18.2l-11.1-43.1
				c-0.3-0.7,0.2-1.3,1-1.3h12.4c0.7,0,1.2,0.4,1.3,1l6.1,24.3c1.5,6.1,2.8,13.9,3.3,19.8c0.1,1.2,1.4,1.3,1.6,0
				c0.8-5.8,2.2-13.7,4-19.8l6.6-24.3c0.2-0.6,0.6-1,1.3-1h10.2c0.6,0,1.1,0.4,1.3,1l6.7,24.3c1.7,6.1,3.1,14,4,19.8
				c0.1,1.3,1.4,1.2,1.5,0c0.4-5.8,1.8-13.7,3.3-19.8l6.1-24.3c0.2-0.6,0.6-1,1.3-1h12.4c0.8,0,1.3,0.5,1,1.3L369.9,86.3z"/>
			<path class="st2" d="M404.4,104.5c0,0.7-0.4,1.2-1.2,1.2H391c-0.7,0-1.2-0.4-1.2-1.2V43.1c0-0.7,0.4-1.2,1.2-1.2h12.2
				c0.7,0,1.2,0.4,1.2,1.2V104.5z"/>
			<path class="st2" d="M432,78.2c-12.3-4.6-16.8-9.1-16.8-18.9c0-11.8,8.9-18.4,23.1-18.4c5.2,0,10.1,0.9,14.4,2.3l5.9,2
				c0.8,0.3,1,0.7,0.8,1.4l-3.7,10.1c-0.3,0.7-0.7,1-1.4,0.7l-5.3-1.6c-3.6-1.1-7-1.9-10.7-1.9c-5,0-8.5,2.2-8.5,5.4
				c0,3.1,2.8,4.6,7.9,6.5l7.6,2.8c12.5,4.7,17,9.3,17,19.1c0,12.3-8.4,18.9-23.6,18.9c-5.4,0-10.2-0.5-17.7-3l-5.9-1.9
				c-0.8-0.3-1-0.7-0.8-1.4l3.6-10c0.3-0.7,0.7-1,1.4-0.7l6.3,1.9c5.3,1.6,9.3,2.2,13.1,2.2c4.9,0,9-1.2,9-5.9
				c0-2.7-3.1-4.8-8.1-6.7L432,78.2z"/>
			<path class="st2" d="M524.2,104.5c0,0.7-0.4,1.2-1.2,1.2h-12.1c-0.7,0-1.2-0.4-1.2-1.2V79.2h-23.4v25.3c0,0.7-0.4,1.2-1.2,1.2
				H473c-0.7,0-1.2-0.4-1.2-1.2V43.1c0-0.7,0.4-1.2,1.2-1.2h12.2c0.7,0,1.2,0.4,1.2,1.2v23.5h23.4V43.1c0-0.7,0.4-1.2,1.2-1.2H523
				c0.7,0,1.2,0.4,1.2,1.2V104.5z"/>
		</g>
	</g>
	<g>
		<g>
			<g>
				<path class="st3" d="M177.3,37.2L96.5,37C61.1,37,32,66.6,32,102.1c0,35.4,22.8,64,58.3,64h87.1c35.4,0,64.2-29.5,64.2-64.9
					C241.5,65.7,212.8,37.2,177.3,37.2z"/>
			</g>
		</g>
		<circle class="st4" cx="177" cy="101.5" r="54.5"/>
	</g>
	<rect x="264" y="21" class="st0" width="5" height="162"/>
	<g>
		<g>
			<path class="st2" d="M615.6,160.3c-1.8,0.5-3.7,0.8-5.5,0.8c-9.1,0-14.1-5.8-14.1-15.1c0-9.2,4.9-14.9,14.2-14.9
				c1.5,0,3.3,0.2,5.1,0.7l2.5,0.7c0.4,0.1,0.6,0.4,0.5,0.8l-1.4,4.4c-0.1,0.4-0.4,0.5-0.8,0.4l-2-0.5c-1.5-0.5-2.9-0.7-4-0.7
				c-5.3,0-7.7,3.4-7.7,9c0,5.8,2.5,9.1,7.6,9.1c1.2,0,2.9-0.2,4.4-0.7l2-0.6c0.4-0.1,0.7,0.1,0.8,0.4l1.4,4.4
				c0.1,0.4-0.1,0.7-0.5,0.8L615.6,160.3z"/>
			<path class="st2" d="M650.7,146c0,9.2-5.2,15.1-13.6,15.1c-8.5,0-13.7-5.8-13.7-15.1c0-9.1,5.2-14.9,13.7-14.9
				C645.5,131.1,650.7,136.9,650.7,146z M629.9,146c0,5.7,2.7,9.1,7.2,9.1c4.4,0,7.1-3.4,7.1-9.1c0-5.6-2.7-9-7.1-9
				C632.6,137,629.9,140.4,629.9,146z"/>
			<path class="st2" d="M662.1,134.6c0.4,0.7,0.7,0.7,1.4,0.1c2.3-2.5,4.9-3.6,7.7-3.6c3.4,0,6.1,1.7,7.7,4c0.8,0.8,1.3,0.7,2,0
				c2.6-3.1,5.3-4,8.1-4c6.6,0,10.4,4.2,10.4,11.2v17.5c0,0.4-0.2,0.7-0.7,0.7h-5.3c-0.4,0-0.7-0.2-0.7-0.7V143c0-3.7-1.5-6-4.7-6
				c-4.5,0-6.5,3.5-6.5,9v13.8c0,0.4-0.2,0.7-0.7,0.7h-5.3c-0.4,0-0.7-0.2-0.7-0.7v-16.8c0-3.7-1.7-5.9-4.7-5.9
				c-4.6,0-6.5,3.5-6.5,9v13.8c0,0.4-0.2,0.7-0.7,0.7h-5.3c-0.4,0-0.7-0.2-0.7-0.7v-27.5c0-0.4,0.2-0.7,0.7-0.7h3
				c0.4,0,0.7,0.2,0.7,0.6L662.1,134.6z"/>
		</g>
		<path class="st2" d="M585.9,156.5c0,3.1-1.8,5-4.9,5c-3.1,0-4.8-1.9-4.8-5c0-3.1,1.7-5,4.8-5C584.1,151.5,585.9,153.4,585.9,156.5
			z"/>
	</g>
</g>
</svg>
